<svg height="85.333328" viewBox="0 0 85.333328 85.333328" width="85.333328" xmlns="http://www.w3.org/2000/svg"><g transform="matrix(.13333333 0 0 -.13333333 0 85.333331)"><path d="m640 320c0-176.73-143.27-320-320-320s-320 143.27-320 320 143.27 320 320 320 320-143.27 320-320" fill="#c84755"/><path d="m320 120c-99.254 0-180 80.746-180 180 0 63.594 34.109 123.121 89.02 155.348 3.175 1.871 6.664 2.761 10.101 2.761 6.859 0 13.543-3.543 17.27-9.89 5.589-9.528 2.398-21.781-7.129-27.375-42.723-25.074-69.262-71.375-69.262-120.844 0-77.195 62.805-140 140-140s140 62.805 140 140c0 50.645-27.484 97.488-71.73 122.262-9.637 5.394-13.075 17.582-7.68 27.218 3.664 6.547 10.461 10.235 17.469 10.235 3.304 0 6.66-.82 9.754-2.551 56.867-31.836 92.187-92.059 92.187-157.164 0-99.254-80.746-180-180-180" fill="#a43f4a"/><path d="m320 280c-11.047 0-20 8.953-20 20v200c0 11.047 8.953 20 20 20s20-8.953 20-20v-200c0-11.047-8.953-20-20-20" fill="#a43f4a"/><g fill="#fff"><path d="m388.27 442.258c42.82-24 71.738-69.707 71.73-122.258-.012-38.723-15.641-73.598-41.004-98.996-25.398-25.363-60.273-40.992-98.996-41.004-38.723.012-73.598 15.641-98.996 41.004-25.367 25.398-40.992 60.273-41.004 98.996-.008 51.539 27.797 96.48 69.262 120.844 9.527 5.59 12.718 17.847 7.129 27.371-5.59 9.527-17.844 12.719-27.371 7.129-53.239-31.203-89.012-89.149-89.02-155.344.012-99.418 80.578-179.988 180-180 99.418.012 179.988 80.582 180 180-.008 67.504-37.203 126.414-92.191 157.16-9.637 5.399-21.825 1.957-27.219-7.68-5.399-9.64-1.957-21.828 7.68-27.222"/><path d="m340 320v200c0 11.047-8.953 20-20 20s-20-8.953-20-20v-200c0-11.047 8.953-20 20-20s20 8.953 20 20"/></g></g></svg>