<svg height="85.333336" viewBox="0 0 85.333336 85.333336" width="85.333336" xmlns="http://www.w3.org/2000/svg"><g transform="matrix(.13333333 0 0 -.13333333 0 85.333333)"><path d="m0 320c0 176.73 143.27 320 320 320s320-143.27 320-320-143.27-320-320-320-320 143.27-320 320" fill="#77caa9"/><path d="m320 100c-11.816 0-23.629 5.699-32.594 17.098l-142.695 181.457c-17.926 22.797-10.32 41.445 16.902 41.445h78.387v120c0 22.094 17.906 40 40 40h80c22.094 0 40-17.906 40-40v-120h78.387c27.222 0 34.828-18.648 16.898-41.445l-142.691-181.457c-8.965-11.399-20.778-17.098-32.594-17.098" fill="#62a48d"/><g fill="#fff"><path d="m240 480c0 22.09 17.91 40 40 40h80c22.09 0 40-17.91 40-40v-240c0-22.09-17.91-40-40-40h-80c-22.09 0-40 17.91-40 40z"/><path d="m478.387 360c27.222 0 34.828-18.652 16.902-41.445l-142.695-181.457c-17.926-22.797-47.262-22.797-65.188 0l-142.695 181.457c-17.926 22.793-10.32 41.445 16.902 41.445z"/></g></g></svg>