<svg height="85.333336" viewBox="0 0 85.333336 85.333336" width="85.333336" xmlns="http://www.w3.org/2000/svg"><g transform="matrix(.13333333 0 0 -.13333333 0 85.333333)"><path d="m640 320c0-176.73-143.27-320-320-320s-320 143.27-320 320 143.27 320 320 320 320-143.27 320-320" fill="#e08e4c"/><path d="m495 150h-350c-13.801 0-25 11.945-25 26.668v213.332-193.332c0-14.723 11.199-26.668 25-26.668h350c13.801 0 25 11.945 25 26.668v-20c0-14.723-11.199-26.668-25-26.668" fill="#b77744"/><path d="m495 440h-50s-14.449-3.332-25 23.336c-5.375 13.57-11.199 26.664-25 26.664h-100c-13.801 0-19.801-13.012-25-26.664-10.148-26.668-25-23.336-25-23.336h-25c0 14.719-11.199 20-25 20h-25c-13.801 0-25-5.281-25-20-13.801 0-25-15.281-25-30v-213.332c0-14.723 11.199-26.668 25-26.668h350c13.801 0 25 11.945 25 26.668v213.332c0 14.719-11.199 30-25 30" fill="#495672"/><path d="m430 310c0-49.703-40.293-90-90-90-49.703 0-90 40.297-90 90 0 49.707 40.297 90 90 90 49.707 0 90-40.293 90-90" fill="#7db6d8"/><path d="m340 180c-60.652 0-110 49.348-110 110 0 60.629 49.309 109.957 109.926 110-49.672-.039-89.926-40.32-89.926-90 0-49.687 40.262-89.969 89.941-90h.059.059c49.679.031 89.941 40.313 89.941 90 0 49.68-40.254 89.961-89.926 90 60.617-.043 109.926-49.371 109.926-110 0-60.652-49.348-110-110-110" fill="#404a5f"/><path d="m340.059 220c38.566.031 69.941 31.426 69.941 70 0 38.594-31.406 70-70 70s-70-31.406-70-70c0-38.574 31.375-69.969 69.941-70-49.679.031-89.941 40.313-89.941 90 0 49.68 40.254 89.961 89.926 90h.074.074c49.672-.039 89.926-40.32 89.926-90 0-49.687-40.262-89.969-89.941-90" fill="#6594b2"/><path d="m340 385c-41.355 0-75-33.645-75-75s33.645-75 75-75 75 33.645 75 75-33.645 75-75 75zm0-180c-57.898 0-105 47.102-105 105s47.102 105 105 105 105-47.102 105-105-47.102-105-105-105" fill="#fff"/></g></svg>