<svg height="85.333328" viewBox="0 0 85.333328 85.333328" width="85.333328" xmlns="http://www.w3.org/2000/svg"><g transform="matrix(.13333333 0 0 -.13333333 0 85.333331)"><path d="m640 320c0-176.73-143.27-320-320-320s-320 143.27-320 320 143.27 320 320 320 320-143.27 320-320" fill="#495672"/><path d="m320 60-.25.0078-.988.0235c-69.645.3554-152.266 30.3554-195.891 78.0467 17.031 8.684 56.496 17.113 78.082 26.492 39.977 17.371 53.43 44.836 56.969 67.758-23.82 20.578-43.129 51.11-55 84.383-16.707 18.176-26.629 38.066-26.629 54.477 0 11.64 5.094 19.406 13.934 24.691 3.425 79.984 60.734 143.691 131.253 144.086l.645.035 1.648-.094c70.969-1.008 128.356-66.086 130.387-147.14 6.074-5.125 9.547-12.032 9.547-21.578 0-13.95-7.219-30.411-19.605-46.204-12.047-38.168-33.957-73.582-61.481-95.726 4.258-22.266 18.215-48.082 56.426-64.688 21.586-9.379 61.051-17.808 78.082-26.492-43.883-47.9764-126.988-78.078-197.129-78.078" fill="#404a5f"/><path d="m439.047 184.57c-38.211 16.606-52.168 42.422-56.426 64.688 27.524 22.144 49.434 57.558 61.481 95.726 12.386 15.793 19.605 32.254 19.605 46.204 0 9.546-3.473 16.453-9.547 21.578-2.031 81.054-59.418 146.132-130.387 147.14l-1.648.094-.645-.039c-70.519-.391-127.828-64.098-131.253-144.086-8.84-5.281-13.934-13.047-13.934-24.687 0-16.411 9.922-36.301 26.629-54.477 11.871-33.273 31.18-63.805 55-84.383-3.539-22.922-16.992-50.387-56.969-67.758-21.586-9.379-61.051-17.808-78.082-26.492 43.625-47.691 126.246-77.6913 195.891-78.0467l.988-.0235.25-.0078c70.141 0 153.246 30.102 197.129 78.078-17.031 8.684-56.496 17.113-78.082 26.492" fill="#fff"/></g></svg>