<svg height="85.333328" viewBox="0 0 85.333328 85.333328" width="85.333328" xmlns="http://www.w3.org/2000/svg"><g transform="matrix(.13333333 0 0 -.13333333 0 85.333331)"><path d="m640 320c0-176.73-143.27-320-320-320s-320 143.27-320 320 143.27 320 320 320 320-143.27 320-320" fill="#c84755"/><g fill="#a43f4a"><path d="m440 300h-240c-11.031 0-20 8.969-20 20v120c0 11.031 8.969 20 20 20h240c11.031 0 20-8.969 20-20v-120c0-11.031-8.969-20-20-20"/><path d="m440 140h-240c-33.086 0-60 26.914-60 60v120 120c0 33.086 26.914 60 60 60h240c33.086 0 60-26.914 60-60v-120-120c0-33.086-26.914-60-60-60m0 80c-11.031 0-20-8.969-20-20s8.969-20 20-20 20 8.969 20 20-8.969 20-20 20m-260 100c0-11.031 8.969-20 20-20h240c11.031 0 20 8.969 20 20v120c0 11.031-8.969 20-20 20h-240c-11.031 0-20-8.969-20-20z"/><path d="m440 180c-11.031 0-20 8.969-20 20s8.969 20 20 20 20-8.969 20-20-8.969-20-20-20"/><path d="m420 80h-200c-11.047 0-20 8.9531-20 20 0 11.047 8.953 20 20 20h200c11.047 0 20-8.953 20-20 0-11.0469-8.953-20-20-20"/></g><path d="m480 220c0-22.09-17.906-40-40-40h-240c-22.09 0-40 17.91-40 40v240c0 22.09 17.91 40 40 40h240c22.094 0 40-17.91 40-40z" fill="#fff"/><path d="m480 220h-20c-.012-5.586-2.207-10.457-5.859-14.141-3.68-3.652-8.555-5.847-14.141-5.859h-240c-5.586.012-10.461 2.207-14.141 5.859-3.652 3.684-5.847 8.555-5.859 14.141v240c.012 5.586 2.207 10.461 5.859 14.145 3.68 3.648 8.555 5.843 14.141 5.855h240c5.586-.012 10.461-2.207 14.141-5.855 3.652-3.684 5.847-8.559 5.859-14.145v-240h20 20v240c-.012 33.145-26.855 59.988-60 60h-240c-33.145-.012-59.988-26.855-60-60v-240c.012-33.145 26.855-59.988 60-60h240c33.145.012 59.988 26.855 60 60z" fill="#fff"/><path d="m480 340c0-22.09-17.906-40-40-40h-240c-22.09 0-40 17.91-40 40v120c0 22.09 17.91 40 40 40h240c22.094 0 40-17.91 40-40z" fill="#495672"/><path d="m480 340h-20c-.012-5.586-2.207-10.461-5.859-14.141-3.68-3.652-8.555-5.847-14.141-5.859h-240c-5.586.012-10.461 2.207-14.141 5.859-3.652 3.68-5.847 8.555-5.859 14.141v120c.012 5.586 2.207 10.461 5.859 14.145 3.68 3.648 8.555 5.843 14.141 5.855h240c5.586-.012 10.461-2.207 14.141-5.855 3.652-3.684 5.847-8.559 5.859-14.145v-120h20 20v120c-.012 33.145-26.855 59.988-60 60h-240c-33.145-.012-59.988-26.855-60-60v-120c.012-33.145 26.855-59.988 60-60h240c33.145.012 59.988 26.855 60 60z" fill="#fff"/><path d="m200 180h240c22.094 0 40 17.91 40 40v40h-320v-40c0-22.09 17.906-40 40-40" fill="#e1e3cc"/><path d="m200 180v-20h240c33.145.012 59.988 26.855 60 60v60h-360v-60c.012-33.145 26.855-59.988 60-60v20 20c-5.586.012-10.461 2.207-14.141 5.859-3.652 3.684-5.847 8.555-5.859 14.141v20h280v-20c-.012-5.586-2.207-10.457-5.859-14.141-3.68-3.652-8.555-5.847-14.141-5.859h-240z" fill="#e1e3cc"/><path d="m240 220c0-22.09-17.91-40-40-40s-40 17.91-40 40 17.91 40 40 40 40-17.91 40-40" fill="#e08e4c"/><path d="m240 220h-20c-.012-5.586-2.207-10.457-5.859-14.141-3.68-3.652-8.555-5.847-14.141-5.859-5.586.012-10.461 2.207-14.141 5.859-3.652 3.684-5.847 8.555-5.859 14.141.012 5.586 2.207 10.461 5.859 14.145 3.68 3.648 8.555 5.843 14.141 5.855 5.586-.012 10.461-2.207 14.141-5.855 3.652-3.684 5.847-8.559 5.859-14.145h20 20c-.012 33.145-26.855 59.988-60 60-33.145-.012-59.988-26.855-60-60 .012-33.145 26.855-59.988 60-60 33.145.012 59.988 26.855 60 60z" fill="#e1e3cc"/><path d="m480 220c0-22.09-17.906-40-40-40s-40 17.91-40 40 17.906 40 40 40 40-17.91 40-40" fill="#e08e4c"/><path d="m480 220h-20c-.012-5.586-2.207-10.457-5.859-14.141-3.68-3.652-8.555-5.847-14.141-5.859-5.586.012-10.461 2.207-14.141 5.859-3.652 3.684-5.847 8.555-5.859 14.141.012 5.586 2.207 10.461 5.859 14.145 3.68 3.648 8.555 5.843 14.141 5.855 5.586-.012 10.461-2.207 14.141-5.855 3.652-3.684 5.847-8.559 5.859-14.145h20 20c-.012 33.145-26.855 59.988-60 60-33.145-.012-59.988-26.855-60-60 .012-33.145 26.855-59.988 60-60 33.145.012 59.988 26.855 60 60z" fill="#e1e3cc"/><path d="m440 120c0-11.047-8.953-20-20-20h-200c-11.047 0-20 8.953-20 20s8.953 20 20 20h200c11.047 0 20-8.953 20-20" fill="#f3cc70"/></g></svg>