<svg height="85.333328" viewBox="0 0 85.333328 85.333328" width="85.333328" xmlns="http://www.w3.org/2000/svg"><g transform="matrix(.13333333 0 0 -.13333333 0 85.333331)"><path d="m640 320c0-176.73-143.27-320-320-320s-320 143.27-320 320 143.27 320 320 320 320-143.27 320-320" fill="#c84755"/><path d="m460 100h-280c-11.047 0-20 8.953-20 20v360c0 11.047 8.953 20 20 20h230c11.047 0 70-58.953 70-70v-310c0-11.047-8.953-20-20-20" fill="#a43f4a"/><path d="m480 140c0-11.047-8.953-20-20-20h-280c-11.047 0-20 8.953-20 20v360c0 11.047 8.953 20 20 20h230c11.047 0 70-58.953 70-70z" fill="#495672"/><path d="m440 180c0-11.047-8.953-20-20-20h-200c-11.047 0-20 8.953-20 20v200c0 11.047 8.953 20 20 20h200c11.047 0 20-8.953 20-20z" fill="#e1e3cc"/><g fill="#f3cc70"><path d="m240 460h-40v60h40z"/><path d="m300 460h-40v60h40z"/><path d="m360 460h-40v60h40z"/></g></g></svg>